<svg xmlns="http://www.w3.org/2000/svg" version="1.1" xmlns:xlink="http://www.w3.org/1999/xlink" xmlns:svgjs="http://svgjs.dev/svgjs" width="2000" height="2250" viewBox="0 0 2000 2250"><g transform="matrix(1,0,0,1,3.410605131648481e-13,0)"><svg viewBox="0 0 320 360" data-background-color="#ffffff" preserveAspectRatio="xMidYMid meet" height="2250" width="2000" xmlns="http://www.w3.org/2000/svg" xmlns:xlink="http://www.w3.org/1999/xlink"><g id="tight-bounds" transform="matrix(1,0,0,1,0,0)"><svg viewBox="0 0 320 360" height="360" width="320"><g><svg></svg></g><g><svg viewBox="0 0 320 360" height="360" width="320"><g><path xmlns="http://www.w3.org/2000/svg" d="M20.961 227.22l3.726 4.658-1.863-6.056c-0.466-2.795-3.726 0.466-1.863 1.398M25.153 224.425c1.397 2.329 2.795 4.658 2.795 6.987 0 3.261 2.795 4.658 5.123 5.589-3.261-3.726-5.124-13.974-7.918-12.576M204.017 26.929c7.918 0 15.371-0.932 23.756 0.931 20.495 5.124 37.729 15.371 49.374 29.811l32.606 52.169c1.397 13.042 4.192 27.482 3.726 43.319 3.261 0 2.795-4.658 6.521-5.59-3.726 9.316-5.59 20.961-6.521 34.469-2.329-7.453 0-18.632 0.466-24.687-3.261 5.124-5.124 1.397-5.124-0.932 0.466-3.726-1.397-3.261-2.795-4.658-5.124-4.658-8.384-9.782-12.11-17.7 2.329-6.055 2.795-14.905-4.658-19.563-2.329-1.397-5.124-3.726-6.521-7.453-1.863-5.124-5.124-11.179-4.193-19.097 0.466-2.329-6.987 5.124-11.179 1.863-18.166-12.576-36.332-27.016-58.224-39.127-11.645 0-20.029-4.192-24.221-9.316-3.726-4.658-0.932-10.713 4.658-11.179 3.261 0 6.987-0.932 9.782 0.932 0.466-1.863 2.329-4.192 4.657-4.192M157.904 16.215l0.932 0.466c4.658 0.932 6.987 7.453 12.11 5.124 0 3.261 0.466 6.521-0.466 8.85-1.397 3.726-5.59 3.726-8.85 3.726-31.208-1.863-49.374 11.179-68.471 22.358-5.124 3.261-10.713 5.59-14.906 9.782-20.029 18.632-41.921 35.866-47.045 70.335l-4.192 38.195c-0.466 4.192-5.124 8.384-4.192 13.508l3.26 22.824c-3.261-3.261-5.124 0.932-4.192 2.795 0.466 1.397 2.329 6.055 5.124 1.863 3.726 6.987 7.453 20.495 12.576 26.55 15.837 18.632 36.332 35.4 53.101 52.169 4.192-0.932 7.453-0.932 8.384-3.727 1.397 2.795-1.397 5.59-3.726 6.056 7.453 4.658 15.837 8.85 27.016 9.781 14.44 0.932 27.948 3.261 40.524 6.522 6.521-1.863 13.042-2.795 20.029-3.261 2.329 0 3.726-3.726 6.521-4.658l0.466-4.658c2.795 4.192 2.329-1.397 0.466-4.192 3.261 2.795 4.192 5.124 5.589 6.987 0-1.397 3.726-6.521 3.727-0.466l0.931-6.055c1.397-0.932 1.863 5.124 3.261 0.931 1.397-4.192 4.192-0.932 6.987-2.329-0.932 1.863-0.466 5.59 2.794 3.261l3.727-3.261c2.329 5.59 6.055 3.261 7.918 2.329 20.495-13.042 40.99-28.413 60.553-43.784l-0.466 6.055 2.329-7.453c2.329 2.329 4.192 0.466 5.124-0.931 2.795-4.658 6.521-9.316 12.577-13.508-7.453 20.029-16.303 35.866-27.482 48.908l-4.658 5.59c0 3.261-0.932 7.453-4.658 7.918-1.863 0.466-5.59-0.932-8.384 1.863-1.397 1.863 3.261 5.59-0.466 2.795-3.261-2.329-6.521 0-10.248 0.932-2.795 0.932 1.863 3.726 2.795 5.589 0.932 1.863 1.863 3.726 1.398 6.056l-5.124-5.59c-6.055 3.261-9.782 9.316-14.906 13.974-2.329 1.863-1.397 5.124-1.397 7.918-3.261 0-6.987-0.932-8.85 0.932-1.397 1.863-0.932 4.658-0.932 7.453-4.658-0.466-5.124-7.453-9.315-6.056-4.192 0.932-8.85 1.397-12.577 3.727 2.795 5.59-4.658 2.329-3.726 3.26-6.987-4.192-13.042-7.453-20.495-4.658-15.837-5.124-35.4-2.795-49.84-0.931 0-2.329 0.466-4.658-0.466-5.124-0.932 2.329-3.726 1.397-3.26 1.397-8.85-6.055-17.7-9.782-27.016-14.905-8.384 0.932-16.303-3.261-18.632-5.59-6.521-6.055-13.974-2.795-20.029-4.192-13.042-3.261-17.7-16.769-19.098-26.084-0.932-4.658-4.658-6.521-6.055-6.056-6.055-19.563-15.371-37.263-22.824-55.429-1.863-4.658-1.397-9.316-1.397-14.44 2.329 0.932 4.658 0.466 4.192-2.794-2.329-15.371-7.918-27.016-13.974-38.195 3.261-15.837 3.726-34.469 11.179-48.443 6.521-12.576 18.632-19.098 27.016-29.811 2.795-3.726 2.795-8.85 5.59-12.11 9.316-9.316 18.632-19.098 28.879-27.482 4.658-3.726 10.247 0 17.234-1.397 2.329-8.384 11.645-15.837 20.495-13.508 3.726 0.932 11.179-8.85 13.508-9.782 3.726-1.397 1.863 3.726 1.863 6.987 8.85-6.987 20.961-10.713 32.14-14.906" fill="#096a2e" fill-rule="nonzero" stroke="none" stroke-width="1" stroke-linecap="butt" stroke-linejoin="miter" stroke-miterlimit="10" stroke-dasharray="" stroke-dashoffset="0" font-family="none" font-weight="none" font-size="none" text-anchor="none" style="mix-blend-mode: normal" data-fill-palette-color="tertiary"></path></g><g transform="matrix(1,0,0,1,64,166.55239986296615)"><svg viewBox="0 0 192 26.895200274067676" height="26.895200274067676" width="192"><g><svg viewBox="0 0 192 26.895200274067676" height="26.895200274067676" width="192"><g><svg viewBox="0 0 192 26.895200274067676" height="26.895200274067676" width="192"><g><svg viewBox="0 0 192 26.895200274067676" height="26.895200274067676" width="192"><g><svg viewBox="0 0 192 26.895200274067676" height="26.895200274067676" width="192"><g><svg viewBox="0 0 192 26.895200274067676" height="26.895200274067676" width="192"><g transform="matrix(1,0,0,1,0,0)"><svg width="192" viewBox="2.8288424015045166 -35.38999938964844 255.8611602783203 35.85068893432617" height="26.895200274067676" data-palette-color="#096a2e"><path d="M26.64-13.98L19.21-13.98 19.21-17.42 30.51-17.42 30.51-1.24Q27.78-0.38 25.05 0.04 22.32 0.46 18.81 0.46L18.81 0.46Q11.22 0.46 7.03-4.03 2.83-8.52 2.83-16.63L2.83-16.63Q2.78-21.79 4.89-25.7 7-29.6 10.95-31.71 14.89-33.82 20.1-33.75L20.1-33.75Q25.43-33.75 30.01-31.77L30.01-31.77 28.51-28.36Q24.04-30.28 19.84-30.28L19.84-30.28Q13.75-30.28 10.34-26.67 6.93-23.05 6.93-16.47 6.93-9.88 10.22-6.41 13.52-2.93 19.89-2.93L19.89-2.93Q23.28-2.93 26.64-3.74L26.64-3.74 26.64-13.98ZM41.43-29.82Q40.8-29.17 39.81-29.17 38.82-29.17 38.22-29.82 37.61-30.46 37.61-31.7 37.61-32.94 38.22-33.57 38.82-34.2 39.81-34.2 40.8-34.2 41.43-33.56 42.06-32.91 42.06-31.69 42.06-30.46 41.43-29.82ZM37.91-24.92L41.71-24.92 41.71 0 37.91 0 37.91-24.92ZM49.44-8.62L49.44-24.92 53.26-24.92 53.26-8.75Q53.26-5.69 54.66-4.2 56.06-2.7 58.99-2.7L58.99-2.7Q62.91-2.7 64.71-4.85 66.5-7 66.5-11.83L66.5-11.83 66.5-24.92 70.29-24.92 70.29 0 67.18 0 66.63-3.34 66.43-3.34Q65.26-1.52 63.22-0.53 61.17 0.46 58.51 0.46L58.51 0.46Q53.91 0.46 51.68-1.73 49.44-3.92 49.44-8.62L49.44-8.62ZM78.28-35.39L82.07-35.39 82.07 0 78.28 0 78.28-35.39ZM93.57-29.82Q92.94-29.17 91.95-29.17 90.97-29.17 90.36-29.82 89.75-30.46 89.75-31.7 89.75-32.94 90.36-33.57 90.97-34.2 91.95-34.2 92.94-34.2 93.57-33.56 94.2-32.91 94.2-31.69 94.2-30.46 93.57-29.82ZM90.06-24.92L93.85-24.92 93.85 0 90.06 0 90.06-24.92ZM103.51-21.99Q106.59-25.38 111.89-25.38 117.2-25.38 120.29-21.9 123.37-18.43 123.37-12.42 123.37-6.42 120.29-2.96L120.29-2.96Q117.2 0.46 111.82 0.46L111.82 0.46Q106.74 0.51 103.55-3.06 100.37-6.62 100.44-12.49L100.44-12.49Q100.44-18.6 103.51-21.99ZM111.84-22.17L111.84-22.17Q104.36-22.17 104.36-12.49L104.36-12.49Q104.36-7.71 106.27-5.21 108.18-2.7 111.89-2.7 115.61-2.7 117.53-5.19 119.45-7.68 119.45-12.47 119.45-17.26 117.53-19.72 115.61-22.17 111.84-22.17ZM147.56-21.16L147.56-21.16 147.56 0 143.99 0 143.99-33.27 149.81-33.27 160.35-5.81 160.52-5.81 171.14-33.27 176.93-33.27 176.93 0 173.06 0 173.06-21.44Q173.06-25.28 173.39-29.45L173.39-29.45 173.19-29.45 161.81 0 158.7 0 147.43-29.47 147.25-29.47Q147.56-25.99 147.56-21.16ZM187.15-21.99Q190.22-25.38 195.53-25.38 200.84-25.38 203.92-21.9 207.01-18.43 207.01-12.42 207.01-6.42 203.92-2.96L203.92-2.96Q200.84 0.46 195.46 0.46L195.46 0.46Q190.37 0.51 187.19-3.06 184-6.62 184.08-12.49L184.08-12.49Q184.08-18.6 187.15-21.99ZM195.48-22.17L195.48-22.17Q188-22.17 188-12.49L188-12.49Q188-7.71 189.91-5.21 191.82-2.7 195.53-2.7 199.25-2.7 201.17-5.19 203.09-7.68 203.09-12.47 203.09-17.26 201.17-19.72 199.25-22.17 195.48-22.17ZM213.6-35.39L217.39-35.39 217.39 0 213.6 0 213.6-35.39ZM225.38-35.39L229.17-35.39 229.17 0 225.38 0 225.38-35.39ZM238.84-21.99Q241.91-25.38 247.22-25.38 252.53-25.38 255.61-21.9 258.69-18.43 258.69-12.42 258.69-6.42 255.61-2.96L255.61-2.96Q252.53 0.46 247.14 0.46L247.14 0.46Q242.06 0.51 238.88-3.06 235.69-6.62 235.77-12.49L235.77-12.49Q235.77-18.6 238.84-21.99ZM247.17-22.17L247.17-22.17Q239.68-22.17 239.68-12.49L239.68-12.49Q239.68-7.71 241.59-5.21 243.5-2.7 247.22-2.7 250.93-2.7 252.85-5.19 254.78-7.68 254.78-12.47 254.78-17.26 252.85-19.72 250.93-22.17 247.17-22.17Z" opacity="1" transform="matrix(1,0,0,1,0,0)" fill="#096a2e" class="undefined-text-0" data-fill-palette-color="primary" id="text-0"></path></svg></g></svg></g></svg></g></svg></g><g></g></svg></g></svg></g></svg></g></svg></g><defs></defs></svg><rect width="320" height="360" fill="none" stroke="none" visibility="hidden"></rect></g></svg></g></svg>